<mxfile host="app.diagrams.net" agent="Mozilla/5.0 (Windows NT 10.0; Win64; x64) AppleWebKit/537.36 (KHTML, like Gecko) Chrome/135.0.0.0 Safari/537.36" version="26.2.14">
  <diagram name="Page-1" id="6ngZtiUM4uMh45GGR5u8">
    <mxGraphModel dx="513" dy="460" grid="1" gridSize="10" guides="1" tooltips="1" connect="1" arrows="1" fold="1" page="1" pageScale="1" pageWidth="850" pageHeight="1100" math="0" shadow="0">
      <root>
        <mxCell id="0" />
        <mxCell id="1" parent="0" />
        <mxCell id="xVOtCNTEhyg7BvDX45ZJ-3" value="&lt;font style=&quot;font-size: 16px;&quot;&gt;TAKE YOUR CARE APP&lt;/font&gt;" style="swimlane;whiteSpace=wrap;html=1;fillColor=light-dark(#FFFFFF,#000000);" vertex="1" parent="1">
          <mxGeometry x="320" y="572" width="300" height="220" as="geometry" />
        </mxCell>
        <mxCell id="xVOtCNTEhyg7BvDX45ZJ-4" value="&lt;font style=&quot;font-size: 16px;&quot;&gt;How are you feeling?&lt;/font&gt;" style="text;html=1;align=center;verticalAlign=middle;whiteSpace=wrap;rounded=0;" vertex="1" parent="xVOtCNTEhyg7BvDX45ZJ-3">
          <mxGeometry x="6" y="28" width="184" height="30" as="geometry" />
        </mxCell>
        <mxCell id="xVOtCNTEhyg7BvDX45ZJ-5" value="" style="rounded=1;whiteSpace=wrap;html=1;" vertex="1" parent="xVOtCNTEhyg7BvDX45ZJ-3">
          <mxGeometry x="7" y="57" width="243" height="40" as="geometry" />
        </mxCell>
        <mxCell id="xVOtCNTEhyg7BvDX45ZJ-6" value="&lt;font style=&quot;font-size: 16px;&quot;&gt;Select city for therapist recommendation&lt;/font&gt;" style="text;html=1;align=center;verticalAlign=middle;whiteSpace=wrap;rounded=0;" vertex="1" parent="xVOtCNTEhyg7BvDX45ZJ-3">
          <mxGeometry x="5" y="106" width="295" height="30" as="geometry" />
        </mxCell>
        <mxCell id="xVOtCNTEhyg7BvDX45ZJ-7" value="" style="rounded=1;whiteSpace=wrap;html=1;" vertex="1" parent="xVOtCNTEhyg7BvDX45ZJ-3">
          <mxGeometry x="7" y="137" width="243" height="20" as="geometry" />
        </mxCell>
        <mxCell id="xVOtCNTEhyg7BvDX45ZJ-8" value="&lt;font style=&quot;font-size: 16px;&quot;&gt;Detect&amp;nbsp; &amp;amp; Recommend&lt;/font&gt;" style="rounded=1;whiteSpace=wrap;html=1;strokeColor=light-dark(#000000,#CC0000);" vertex="1" parent="xVOtCNTEhyg7BvDX45ZJ-3">
          <mxGeometry x="7" y="178" width="173" height="30" as="geometry" />
        </mxCell>
        <mxCell id="xVOtCNTEhyg7BvDX45ZJ-18" value="" style="verticalLabelPosition=bottom;html=1;verticalAlign=top;align=center;strokeColor=none;fillColor=#00BEF2;shape=mxgraph.azure.user;" vertex="1" parent="1">
          <mxGeometry x="470" y="290" width="60" height="60" as="geometry" />
        </mxCell>
        <mxCell id="xVOtCNTEhyg7BvDX45ZJ-22" value="&lt;font style=&quot;font-size: 16px;&quot;&gt;user inputs 1)&amp;nbsp;&lt;i style=&quot;&quot;&gt;&quot;how he feels&quot;&lt;/i&gt; text&lt;/font&gt;&lt;font style=&quot;font-size: 18px;&quot;&gt;&amp;nbsp;&lt;/font&gt;&lt;div&gt;&lt;font size=&quot;3&quot;&gt;2) city for recommendation [optional]&amp;nbsp;&lt;/font&gt;&lt;/div&gt;&lt;div&gt;&lt;font size=&quot;3&quot;&gt;in the webapp &quot;&lt;b&gt;Take Your Care&lt;/b&gt;&quot;&lt;/font&gt;&lt;/div&gt;" style="text;html=1;align=right;verticalAlign=middle;whiteSpace=wrap;rounded=0;" vertex="1" parent="1">
          <mxGeometry x="170" y="460.88" width="300" height="52.75" as="geometry" />
        </mxCell>
        <mxCell id="xVOtCNTEhyg7BvDX45ZJ-23" value="&lt;font style=&quot;font-size: 18px;&quot;&gt;1&lt;/font&gt;" style="ellipse;whiteSpace=wrap;html=1;aspect=fixed;" vertex="1" parent="1">
          <mxGeometry x="445.5" y="420.00000000000006" width="24.5" height="24.5" as="geometry" />
        </mxCell>
        <mxCell id="xVOtCNTEhyg7BvDX45ZJ-24" value="" style="shape=flexArrow;endArrow=classic;html=1;rounded=0;" edge="1" parent="1">
          <mxGeometry width="50" height="50" relative="1" as="geometry">
            <mxPoint x="640" y="650" as="sourcePoint" />
            <mxPoint x="860" y="650" as="targetPoint" />
          </mxGeometry>
        </mxCell>
        <mxCell id="xVOtCNTEhyg7BvDX45ZJ-25" value="&lt;font style=&quot;font-size: 16px;&quot;&gt;the webapp sends the input text and city(optional) to the streamlit server&lt;/font&gt;" style="text;html=1;align=center;verticalAlign=middle;whiteSpace=wrap;rounded=0;" vertex="1" parent="1">
          <mxGeometry x="641" y="590" width="202.5" height="51.38" as="geometry" />
        </mxCell>
        <mxCell id="xVOtCNTEhyg7BvDX45ZJ-26" value="&lt;font style=&quot;font-size: 16px;&quot;&gt;2&lt;/font&gt;" style="ellipse;whiteSpace=wrap;html=1;aspect=fixed;" vertex="1" parent="1">
          <mxGeometry x="730" y="562.38" width="24.5" height="24.5" as="geometry" />
        </mxCell>
        <mxCell id="xVOtCNTEhyg7BvDX45ZJ-27" value="" style="shape=image;verticalLabelPosition=bottom;labelBackgroundColor=default;verticalAlign=top;aspect=fixed;imageAspect=0;image=https://eu-images.contentstack.com/v3/assets/blt6b0f74e5591baa03/blt7c0bf7e21d4410b4/6319700b8cc2fa14e223aa27/8895.png;" vertex="1" parent="1">
          <mxGeometry x="870" y="611.38" width="220" height="146.52" as="geometry" />
        </mxCell>
        <mxCell id="xVOtCNTEhyg7BvDX45ZJ-28" value="" style="shape=flexArrow;endArrow=classic;html=1;rounded=0;" edge="1" parent="1">
          <mxGeometry width="50" height="50" relative="1" as="geometry">
            <mxPoint x="851.75" y="695" as="sourcePoint" />
            <mxPoint x="632.75" y="695" as="targetPoint" />
          </mxGeometry>
        </mxCell>
        <mxCell id="xVOtCNTEhyg7BvDX45ZJ-35" value="" style="shape=flexArrow;endArrow=classic;html=1;rounded=0;" edge="1" parent="1">
          <mxGeometry width="50" height="50" relative="1" as="geometry">
            <mxPoint x="1100" y="658.96" as="sourcePoint" />
            <mxPoint x="1320" y="658.96" as="targetPoint" />
          </mxGeometry>
        </mxCell>
        <mxCell id="xVOtCNTEhyg7BvDX45ZJ-36" value="&lt;font style=&quot;font-size: 16px;&quot;&gt;the server sends the input text to the deployed model&lt;/font&gt;" style="text;html=1;align=center;verticalAlign=middle;whiteSpace=wrap;rounded=0;" vertex="1" parent="1">
          <mxGeometry x="1101" y="620.34" width="202.5" height="30" as="geometry" />
        </mxCell>
        <mxCell id="xVOtCNTEhyg7BvDX45ZJ-37" value="&lt;font style=&quot;font-size: 16px;&quot;&gt;3&lt;/font&gt;" style="ellipse;whiteSpace=wrap;html=1;aspect=fixed;" vertex="1" parent="1">
          <mxGeometry x="1200" y="586.88" width="24.5" height="24.5" as="geometry" />
        </mxCell>
        <mxCell id="xVOtCNTEhyg7BvDX45ZJ-38" value="&lt;b&gt;DEPLOYED MODEL&lt;/b&gt;" style="rounded=1;whiteSpace=wrap;html=1;fillColor=light-dark(#FFFFFF,#9DAF7E);" vertex="1" parent="1">
          <mxGeometry x="1340" y="575.09" width="110" height="204.91" as="geometry" />
        </mxCell>
        <mxCell id="xVOtCNTEhyg7BvDX45ZJ-39" value="" style="shape=flexArrow;endArrow=classic;html=1;rounded=0;" edge="1" parent="1">
          <mxGeometry width="50" height="50" relative="1" as="geometry">
            <mxPoint x="1320" y="720" as="sourcePoint" />
            <mxPoint x="1101" y="720" as="targetPoint" />
          </mxGeometry>
        </mxCell>
        <mxCell id="xVOtCNTEhyg7BvDX45ZJ-40" value="&lt;font style=&quot;font-size: 16px;&quot;&gt;the model detects and sends the&amp;nbsp; diagnosed mental health status back to the server&lt;/font&gt;" style="text;html=1;align=center;verticalAlign=middle;whiteSpace=wrap;rounded=0;" vertex="1" parent="1">
          <mxGeometry x="1101" y="740" width="220" height="30" as="geometry" />
        </mxCell>
        <mxCell id="xVOtCNTEhyg7BvDX45ZJ-41" value="&lt;font style=&quot;font-size: 16px;&quot;&gt;4&lt;/font&gt;" style="ellipse;whiteSpace=wrap;html=1;aspect=fixed;" vertex="1" parent="1">
          <mxGeometry x="1198.75" y="792" width="24.5" height="24.5" as="geometry" />
        </mxCell>
        <mxCell id="xVOtCNTEhyg7BvDX45ZJ-44" value="&lt;font style=&quot;font-size: 16px;&quot;&gt;the server renders the output on the application interface&lt;/font&gt;&lt;div&gt;&lt;span style=&quot;background-color: transparent; color: light-dark(rgb(0, 0, 0), rgb(255, 255, 255));&quot;&gt;&lt;font style=&quot;font-size: 16px;&quot;&gt;i) detected status, and&amp;nbsp;&lt;/font&gt;&lt;/span&gt;&lt;div&gt;&lt;font style=&quot;font-size: 16px;&quot;&gt;&lt;span style=&quot;background-color: transparent; color: light-dark(rgb(0, 0, 0), rgb(255, 255, 255));&quot;&gt;ii) list of therapists (if status is &lt;/span&gt;&lt;b style=&quot;background-color: transparent; color: light-dark(rgb(0, 0, 0), rgb(255, 255, 255));&quot;&gt;NOT &lt;/b&gt;&lt;span style=&quot;background-color: transparent; color: light-dark(rgb(0, 0, 0), rgb(255, 255, 255));&quot;&gt;Normal)&lt;/span&gt;&lt;/font&gt;&lt;/div&gt;&lt;/div&gt;" style="text;html=1;align=center;verticalAlign=middle;whiteSpace=wrap;rounded=0;" vertex="1" parent="1">
          <mxGeometry x="630" y="730" width="240" height="40" as="geometry" />
        </mxCell>
        <mxCell id="xVOtCNTEhyg7BvDX45ZJ-45" value="&lt;font style=&quot;font-size: 16px;&quot;&gt;7&lt;/font&gt;" style="ellipse;whiteSpace=wrap;html=1;aspect=fixed;" vertex="1" parent="1">
          <mxGeometry x="730" y="800" width="24.5" height="24.5" as="geometry" />
        </mxCell>
        <mxCell id="xVOtCNTEhyg7BvDX45ZJ-46" value="" style="shape=image;html=1;verticalAlign=top;verticalLabelPosition=bottom;labelBackgroundColor=#ffffff;imageAspect=0;aspect=fixed;image=https://cdn3.iconfinder.com/data/icons/cad-database-presentation-spreadsheet-vector-fil-2/512/19-128.png" vertex="1" parent="1">
          <mxGeometry x="922.5" y="970" width="98" height="98" as="geometry" />
        </mxCell>
        <mxCell id="xVOtCNTEhyg7BvDX45ZJ-47" value="" style="shape=flexArrow;endArrow=classic;html=1;rounded=0;" edge="1" parent="1">
          <mxGeometry width="50" height="50" relative="1" as="geometry">
            <mxPoint x="997.5" y="773.12" as="sourcePoint" />
            <mxPoint x="997.5" y="953.12" as="targetPoint" />
          </mxGeometry>
        </mxCell>
        <mxCell id="xVOtCNTEhyg7BvDX45ZJ-48" value="&lt;font style=&quot;font-size: 16px;&quot;&gt;the list of&amp;nbsp; therapists for detected status and optional city are matched and returned to the server&lt;/font&gt;" style="text;html=1;align=center;verticalAlign=middle;whiteSpace=wrap;rounded=0;" vertex="1" parent="1">
          <mxGeometry x="730" y="890" width="202.5" height="30" as="geometry" />
        </mxCell>
        <mxCell id="xVOtCNTEhyg7BvDX45ZJ-49" value="&lt;font style=&quot;font-size: 16px;&quot;&gt;6&lt;/font&gt;" style="ellipse;whiteSpace=wrap;html=1;aspect=fixed;" vertex="1" parent="1">
          <mxGeometry x="826" y="840" width="24.5" height="24.5" as="geometry" />
        </mxCell>
        <mxCell id="xVOtCNTEhyg7BvDX45ZJ-50" value="" style="shape=flexArrow;endArrow=classic;html=1;rounded=0;" edge="1" parent="1">
          <mxGeometry width="50" height="50" relative="1" as="geometry">
            <mxPoint x="940" y="960" as="sourcePoint" />
            <mxPoint x="940" y="770" as="targetPoint" />
          </mxGeometry>
        </mxCell>
        <mxCell id="xVOtCNTEhyg7BvDX45ZJ-51" value="&lt;font style=&quot;font-size: 16px;&quot;&gt;If detected status is NOT normal,&amp;nbsp;&lt;span style=&quot;background-color: transparent; color: light-dark(rgb(0, 0, 0), rgb(255, 255, 255));&quot;&gt;the server matches the result for therapists&#39; city and detected status in the therapists.csv file&lt;/span&gt;&lt;/font&gt;" style="text;html=1;align=center;verticalAlign=middle;whiteSpace=wrap;rounded=0;" vertex="1" parent="1">
          <mxGeometry x="1010" y="874.5" width="320" height="45.5" as="geometry" />
        </mxCell>
        <mxCell id="xVOtCNTEhyg7BvDX45ZJ-52" value="&lt;font style=&quot;font-size: 16px;&quot;&gt;5&lt;/font&gt;" style="ellipse;whiteSpace=wrap;html=1;aspect=fixed;" vertex="1" parent="1">
          <mxGeometry x="1020.5" y="840" width="24.5" height="24.5" as="geometry" />
        </mxCell>
        <mxCell id="xVOtCNTEhyg7BvDX45ZJ-57" value="&lt;font style=&quot;font-size: 18px;&quot;&gt;8&lt;/font&gt;" style="ellipse;whiteSpace=wrap;html=1;aspect=fixed;" vertex="1" parent="1">
          <mxGeometry x="550" y="419.99999999999994" width="24.5" height="24.5" as="geometry" />
        </mxCell>
        <mxCell id="xVOtCNTEhyg7BvDX45ZJ-58" value="&lt;font style=&quot;font-size: 16px;&quot;&gt;user gets result as&amp;nbsp;&lt;/font&gt;&lt;div&gt;&lt;font size=&quot;3&quot;&gt;1) mental health status and&amp;nbsp;&lt;/font&gt;&lt;/div&gt;&lt;div&gt;&lt;font size=&quot;3&quot;&gt;2) recommendation for therapist&lt;/font&gt;&lt;/div&gt;" style="text;html=1;align=left;verticalAlign=middle;whiteSpace=wrap;rounded=0;" vertex="1" parent="1">
          <mxGeometry x="550" y="467.25" width="250" height="40" as="geometry" />
        </mxCell>
        <mxCell id="xVOtCNTEhyg7BvDX45ZJ-60" value="&lt;font style=&quot;font-size: 16px;&quot;&gt;therapists.csv&lt;/font&gt;" style="text;html=1;align=center;verticalAlign=middle;whiteSpace=wrap;rounded=0;" vertex="1" parent="1">
          <mxGeometry x="919.5" y="1068" width="121" height="20" as="geometry" />
        </mxCell>
        <mxCell id="xVOtCNTEhyg7BvDX45ZJ-63" value="" style="shape=flexArrow;endArrow=classic;html=1;rounded=0;" edge="1" parent="1">
          <mxGeometry width="50" height="50" relative="1" as="geometry">
            <mxPoint x="480" y="380" as="sourcePoint" />
            <mxPoint x="480" y="560" as="targetPoint" />
          </mxGeometry>
        </mxCell>
        <mxCell id="xVOtCNTEhyg7BvDX45ZJ-64" value="" style="shape=flexArrow;endArrow=classic;html=1;rounded=0;" edge="1" parent="1">
          <mxGeometry width="50" height="50" relative="1" as="geometry">
            <mxPoint x="530" y="560" as="sourcePoint" />
            <mxPoint x="530" y="370" as="targetPoint" />
          </mxGeometry>
        </mxCell>
      </root>
    </mxGraphModel>
  </diagram>
</mxfile>
